PathFileType	4	(X/Y/Z)	s01c0401.trc
DataRate	CameraRate	NumFrames	NumMarkers	Units	OrigDataRate	OrigDataStartFrame	OrigNumFrames
200	200	4	48	mm	200	1250	2000
Frame#	Time	racr			lacr			c7			jug			rlel			rdr			llel			ldr			s2			lic			ric			lasi			rasi			rpsi			lpsi			rgt			lgt			rth1			rth2			rth3			rth4			rlfc			rsh1			rsh2			rsh3			rsh4			rlmal			rmmal			rcal			rtoe			rmt5			lth1			lth2			lth4			lth3			llfc			lsh1			lsh2			lsh3			lsh4			llmal			lmmal			lcal			ltoe			lmt5			SBIKE			LBIKE			RBIKE			
		X1	Y1	Z1	X2	Y2	Z2	X3	Y3	Z3	X4	Y4	Z4	X5	Y5	Z5	X6	Y6	Z6	X7	Y7	Z7	X8	Y8	Z8	X9	Y9	Z9	X10	Y10	Z10	X11	Y11	Z11	X12	Y12	Z12	X13	Y13	Z13	X14	Y14	Z14	X15	Y15	Z15	X16	Y16	Z16	X17	Y17	Z17	X18	Y18	Z18	X19	Y19	Z19	X20	Y20	Z20	X21	Y21	Z21	X22	Y22	Z22	X23	Y23	Z23	X24	Y24	Z24	X25	Y25	Z25	X26	Y26	Z26	X27	Y27	Z27	X28	Y28	Z28	X29	Y29	Z29	X30	Y30	Z30	X31	Y31	Z31	X32	Y32	Z32	X33	Y33	Z33	X34	Y34	Z34	X35	Y35	Z35	X36	Y36	Z36	X37	Y37	Z37	X38	Y38	Z38	X39	Y39	Z39	X40	Y40	Z40	X41	Y41	Z41	X42	Y42	Z42	X43	Y43	Z43	X44	Y44	Z44	X45	Y45	Z45	X46	Y46	Z46	X47	Y47	Z47	X48	Y48	Z48	
1250	6.2500	726.558750	1267.542017	-57.182078	742.379607	1243.261982	-439.655183	737.097137	1369.001269	-244.558609	711.751649	1201.457663	-241.580046	552.797108	1050.101489	57.655361	698.769022	890.705055	-51.504533	557.942003	1054.477804	-579.136279	687.103110	883.802143	-471.448100	192.708303	1202.045885	-263.604375	366.197078	1198.445072	-431.915588	340.112747	1187.238656	-97.080673	363.628868	1141.205511	-402.324462	367.705663	1139.819738	-128.590105	225.692108	1236.875756	-209.807327	225.721439	1245.029355	-314.544344	279.590063	1071.356814	-79.929969	309.747796	1069.246930	-453.309348	343.293519	951.639884	-63.812446	386.732895	881.320076	-69.459385	428.499109	801.823209	-81.773538	435.654974	907.603246	-79.830532	462.142280	691.850258	-103.074746	406.334767	585.221071	-69.473699	378.797900	505.104505	-75.172532	342.077908	424.782037	-85.887390	422.006211	490.225412	-114.136191	275.994169	319.579674	-105.483655	317.310563	322.530959	-182.740967	227.444712	310.110401	-158.271806	470.041245	190.237829	-139.646484	361.578211	200.707195	-71.515688	374.804327	965.452311	-468.464051	441.981189	910.418040	-459.672889	476.289258	950.471876	-444.025705	500.247582	849.280528	-445.838294	536.756289	751.739053	-424.450565	425.702713	718.187838	-457.865019	349.372888	678.193937	-450.664365	272.524111	641.925698	-436.855985	376.617463	631.268229	-420.251511	160.606006	592.391383	-421.860257	182.889789	572.285122	-342.107682	110.127049	614.777957	-378.074864	217.526834	358.805763	-377.349465	151.322040	440.681906	-444.448792	-275.878694	875.716396	-267.019290	-21.341393	80.571028	-453.853737	-21.347813	80.352628	-53.852163	
1251	6.2550	727.112356	1267.989005	-59.374184	741.776901	1243.828790	-441.812188	736.722329	1369.791811	-246.731685	712.274555	1202.524004	-243.556902	553.775444	1050.998174	56.501553	698.939586	890.607614	-51.288973	557.216116	1054.395374	-580.384463	686.928975	883.946610	-471.927189	192.834357	1200.860371	-261.850024	364.878161	1198.383999	-431.714664	340.876637	1185.843009	-96.521788	363.099982	1141.164218	-401.958832	368.295780	1138.093449	-128.012365	226.064498	1235.499809	-208.121808	225.408501	1244.108716	-312.887698	279.389175	1069.198836	-79.617521	309.795939	1070.243000	-453.311974	340.352772	948.963903	-63.698136	382.044302	877.515081	-69.056196	421.769789	797.121176	-81.350264	431.535836	902.629039	-79.457130	452.946747	685.739871	-102.894180	397.799570	578.810233	-68.955169	370.991402	498.450245	-74.778525	334.868585	417.845812	-85.436838	414.337777	483.852611	-113.869238	269.803608	312.771066	-105.560526	310.911713	315.575968	-182.218319	221.605359	304.681291	-157.482225	462.407784	180.882629	-139.720674	354.214452	193.073848	-71.440582	377.214986	968.768548	-469.118967	445.795583	915.374578	-461.294229	479.779339	956.272173	-444.367240	505.788045	855.377712	-447.778621	544.644068	759.179469	-426.619949	433.812201	725.358724	-459.309273	357.552061	685.549556	-451.728042	280.435948	649.522447	-437.832898	384.836247	638.446304	-421.437443	169.115942	599.702149	-422.218643	191.705019	579.771105	-342.146313	118.614009	622.268365	-378.185350	225.627075	366.205607	-377.407337	159.626444	448.140720	-444.587561	-275.840062	875.675911	-267.028247	-21.338594	80.559725	-453.855007	-21.336344	80.321005	-53.864016	
1252	6.2600	727.588953	1268.584532	-61.719030	741.068192	1244.295616	-444.093053	736.389686	1370.552996	-249.034649	712.829881	1203.756841	-245.055860	554.783730	1052.032296	55.318874	699.010920	890.399779	-50.838733	556.334309	1054.362780	-581.848170	686.629838	884.088191	-472.387660	193.058442	1199.850346	-260.018994	363.398132	1198.461445	-431.558212	341.767014	1184.490965	-96.097049	362.526280	1141.389255	-401.897308	369.002637	1136.412262	-127.564859	226.567138	1234.228697	-206.356657	225.150172	1243.288245	-311.059024	279.328052	1067.213915	-79.268384	309.597740	1071.402083	-453.418540	337.382230	946.541593	-63.377552	377.232513	874.021345	-68.566371	414.969068	792.747346	-80.815668	427.289765	897.882863	-79.138138	443.370014	680.025008	-102.342296	389.076658	572.959179	-68.378413	362.706836	492.478457	-74.270965	327.082701	411.661570	-84.859807	406.298481	478.113596	-113.192336	263.283947	306.577664	-105.626805	304.286189	309.168562	-181.414438	215.402191	299.728432	-157.189115	454.384409	172.148597	-139.827537	346.411367	185.908170	-71.327455	379.440689	972.210082	-469.938989	449.364783	920.435062	-462.778436	482.315200	962.089774	-445.710491	510.514250	861.538421	-450.383808	552.357895	766.666205	-428.988272	442.018873	732.573106	-460.824524	365.866084	692.764420	-452.840425	288.590564	656.889736	-438.806332	393.263387	645.699451	-422.541436	177.816574	606.623713	-422.527026	200.850418	586.940185	-342.062903	127.338191	629.250458	-378.201719	234.228607	373.041037	-377.505168	168.352855	455.174196	-444.768998	-275.750225	875.644758	-266.860022	-21.336293	80.558910	-453.853124	-21.323261	80.311706	-53.849377	
1253	6.2650	727.999089	1269.112312	-64.159445	740.244415	1244.678793	-446.514160	736.202082	1371.158407	-251.448226	713.280221	1204.742812	-247.366347	555.974189	1053.123480	54.183329	699.102186	890.105030	-50.183345	555.387536	1054.082966	-583.178039	686.390964	884.266702	-472.765616	193.327806	1198.889858	-258.149556	361.803386	1198.686962	-431.456499	342.800856	1183.060253	-95.910868	361.873375	1141.861409	-401.871539	369.810645	1134.809293	-127.312224	227.209453	1233.033793	-204.614928	224.935848	1242.560740	-309.167747	279.373122	1065.467838	-78.910886	309.132185	1072.872775	-453.583966	334.310250	944.440891	-62.891276	372.374736	870.925922	-68.097270	408.122945	788.739387	-80.127761	422.611619	893.716093	-78.853352	433.572321	674.763942	-101.537437	380.111860	567.864806	-67.750664	354.180320	487.281019	-73.620071	318.959562	406.325758	-84.137877	398.208984	473.130334	-112.445351	256.281972	300.940388	-105.549147	297.077716	303.324687	-180.576969	208.861801	295.224554	-156.768709	445.805966	163.777650	-140.118896	338.100530	179.232780	-71.251196	381.533449	975.676917	-470.830561	452.367195	925.486370	-464.764166	484.475002	967.802108	-447.557757	514.827585	867.817425	-453.008492	559.947450	774.093866	-431.560998	450.245725	739.892687	-462.390462	374.132971	699.912859	-453.927670	296.789462	664.060016	-439.798892	401.909580	653.099949	-424.252796	186.787194	613.070276	-422.694651	210.237797	593.697394	-342.062131	136.148428	635.692048	-378.160563	242.136599	379.146245	-376.765097	177.450698	461.737534	-444.931607	-275.811815	875.688338	-266.976258	-21.332310	80.559801	-453.846438	-21.298792	80.260512	-53.824657	
